<svg width="19" height="14" viewBox="0 0 19 14" fill="none" xmlns="http://www.w3.org/2000/svg">
<path fill-rule="evenodd" clip-rule="evenodd" d="M11.9907 0.509135C11.7196 0.238044 11.2801 0.238044 11.009 0.509135C10.7379 0.780226 10.7379 1.21975 11.009 1.49084L15.824 6.30582H1.49984C1.11646 6.30582 0.805664 6.61661 0.805664 6.99999C0.805664 7.38337 1.11646 7.69416 1.49984 7.69416H15.824L11.009 12.5091C10.7379 12.7802 10.7379 13.2198 11.009 13.4908C11.2801 13.7619 11.7196 13.7619 11.9907 13.4908L17.9907 7.49084C18.1178 7.36377 18.1853 7.19969 18.1932 7.03329C18.1937 7.0222 18.194 7.01109 18.194 6.99999C18.194 6.90587 18.1753 6.81612 18.1413 6.73427C18.1075 6.6524 18.0572 6.57569 17.9907 6.50914L11.9907 0.509135Z" fill="white"/>
</svg>
