<svg width="29" height="29" viewBox="0 0 29 29" fill="none" xmlns="http://www.w3.org/2000/svg">
<rect width="29" height="29" rx="6" fill="#E5E5E5"/>
<path fill-rule="evenodd" clip-rule="evenodd" d="M7.99609 8.5C7.99609 8.22386 8.21995 8 8.49609 8H20.4968C20.773 8 20.9968 8.22386 20.9968 8.5C20.9968 8.77614 20.773 9 20.4968 9H8.49609C8.21995 9 7.99609 8.77614 7.99609 8.5ZM7.99609 14.5C7.99609 14.2239 8.21995 14 8.49609 14H20.4968C20.773 14 20.9968 14.2239 20.9968 14.5C20.9968 14.7761 20.773 15 20.4968 15H8.49609C8.21995 15 7.99609 14.7761 7.99609 14.5ZM8.49609 20C8.21995 20 7.99609 20.2239 7.99609 20.5C7.99609 20.7761 8.21995 21 8.49609 21H20.4968C20.773 21 20.9968 20.7761 20.9968 20.5C20.9968 20.2239 20.773 20 20.4968 20H8.49609Z" fill="#0C0D0E"/>
</svg>
