<svg width="29" height="29" viewBox="0 0 29 29" fill="none" xmlns="http://www.w3.org/2000/svg">
<rect width="29" height="29" rx="6" fill="#E5E5E5"/>
<path fill-rule="evenodd" clip-rule="evenodd" d="M20.1483 8.14648C20.3435 7.95117 20.6601 7.95117 20.8553 8.14648C21.0505 8.34179 21.0505 8.65844 20.8553 8.85375L15.2077 14.5039L20.8469 20.1457C21.0421 20.341 21.0421 20.6577 20.8469 20.853C20.6517 21.0483 20.3351 21.0483 20.1399 20.853L14.5008 15.2112L8.86176 20.8528C8.66654 21.0481 8.35003 21.0481 8.15482 20.8528C7.9596 20.6575 7.9596 20.3408 8.15482 20.1455L13.7938 14.5039L8.14641 8.85393C7.9512 8.65862 7.9512 8.34196 8.14641 8.14666C8.34163 7.95135 8.65814 7.95135 8.85336 8.14666L14.5008 13.7967L20.1483 8.14648Z" fill="#0C0D0E"/>
</svg>
