<svg width="123" height="24" viewBox="0 0 123 24" fill="none" xmlns="http://www.w3.org/2000/svg">
<path d="M10.2844 23.5V4.19301H0.630947V0.785893H23.3451V4.19301H13.6916V23.5H10.2844ZM32.077 23.5V0.785893H52.8983V4.19301H35.5157V10.4394H49.4912V13.8465H35.5157V20.0929H52.8983V23.5H32.077ZM74.9696 23.5L61.8144 0.785893H65.7893L76.6732 19.6512L87.4939 0.785893H91.4689L78.3452 23.5H74.9696ZM99.6266 23.5V4.88705C99.6266 4.12991 99.8054 3.44639 100.163 2.83647C100.541 2.20552 101.036 1.71128 101.646 1.35375C102.277 0.975178 102.971 0.785893 103.728 0.785893H118.208C118.965 0.785893 119.659 0.975178 120.29 1.35375C120.921 1.71128 121.415 2.20552 121.773 2.83647C122.151 3.44639 122.341 4.12991 122.341 4.88705V23.5H118.902V15.5501H103.034V23.5H99.6266ZM103.034 12.1429H118.902V4.98169C118.902 4.77138 118.828 4.59261 118.681 4.44539C118.534 4.27714 118.355 4.19301 118.145 4.19301H103.822C103.612 4.19301 103.423 4.27714 103.255 4.44539C103.107 4.59261 103.034 4.77138 103.034 4.98169V12.1429Z" fill="#0C0D0E"/>
</svg>
