<svg width="123" height="23" viewBox="0 0 123 23" fill="none" xmlns="http://www.w3.org/2000/svg">
<path d="M10.2844 23V3.69301H0.630947V0.285893H23.3451V3.69301H13.6916V23H10.2844ZM32.077 23V0.285893H52.8983V3.69301H35.5157V9.93939H49.4912V13.3465H35.5157V19.5929H52.8983V23H32.077ZM74.9696 23L61.8144 0.285893H65.7893L76.6732 19.1512L87.4939 0.285893H91.4689L78.3452 23H74.9696ZM99.6266 23V4.38705C99.6266 3.62991 99.8054 2.94639 100.163 2.33647C100.541 1.70552 101.036 1.21128 101.646 0.853746C102.277 0.475178 102.971 0.285893 103.728 0.285893H118.208C118.965 0.285893 119.659 0.475178 120.29 0.853746C120.921 1.21128 121.415 1.70552 121.773 2.33647C122.151 2.94639 122.341 3.62991 122.341 4.38705V23H118.902V15.0501H103.034V23H99.6266ZM103.034 11.6429H118.902V4.48169C118.902 4.27138 118.828 4.09261 118.681 3.94539C118.534 3.77714 118.355 3.69301 118.145 3.69301H103.822C103.612 3.69301 103.423 3.77714 103.255 3.94539C103.107 4.09261 103.034 4.27138 103.034 4.48169V11.6429Z" fill="white"/>
</svg>
